# xmcd
#
# Track frame offsets: 
#        150
#        17484
#        36560
#        56379
#        73842
#        89053
#        116724
#        132172
#        153174
#        176609
#        198676
#        218575
#        235469
#
# Disc length: 3405 seconds
#
# Revision: 0
# Processed by: cddbd v1.5.2PL0 Copyright (c) Steve Scherf et al.
# Submitted via: ExactAudioCopy v1.0b3
#
DISCID=bc0d4b0d
DTITLE=Tommie Lee Bradley - Soul Soup
DYEAR=2006
DGENRE=Soulful Rhythm and Blues
TTITLE0=Soul Soup
TTITLE1=Don't Open That Door
TTITLE2=Blue Motel
TTITLE3=Walkin' After Midnight
TTITLE4=Sometimes You Just Gotta Hurt
TTITLE5=Mother Earth
TTITLE6=Hurricane Sam
TTITLE7=I Like a Guy What Takes His Time
TTITLE8=Lookin' For a Friend
TTITLE9=Ruby Tuesday
TTITLE10=What's a Child to Do?
TTITLE11=Spare the Truth
TTITLE12=If I Could Take Your Pain
EXTD=
EXTT0=
EXTT1=
EXTT2=
EXTT3=
EXTT4=
EXTT5=
EXTT6=
EXTT7=
EXTT8=
EXTT9=
EXTT10=
EXTT11=
EXTT12=
PLAYORDER=
